<svg width="34" height="34" viewBox="0 0 34 34" fill="none" xmlns="http://www.w3.org/2000/svg">
<path d="M28.2148 22.6195H5.91873C4.82858 22.6195 3.94482 21.7357 3.94482 20.6456V11.9607C3.94482 10.8706 4.82858 9.98682 5.91873 9.98682H28.2148C29.305 9.98682 30.1887 10.8706 30.1887 11.9607V20.6456C30.1887 21.7357 29.305 22.6195 28.2148 22.6195Z" fill="#FFE18B"/>
<path d="M20.1449 26.8843C21.1326 26.9602 24.0826 25.912 25.7125 25.8361V18.4407H8.41943V27.2799C10.0936 26.216 12.812 25.0575 14.4095 25.0575C16.0026 25.0575 19.157 26.8083 20.1449 26.8843Z" fill="#AFDBF8"/>
<path d="M25.7125 28.7896V25.8362C24.0826 25.9121 21.1326 26.9603 20.1449 26.8844C19.1571 26.8085 16.0026 25.0576 14.4095 25.0576C12.812 25.0576 10.0936 26.2161 8.41943 27.28V28.7896C8.41943 29.7302 9.182 30.4928 10.1226 30.4928H24.0092C24.9499 30.4928 25.7125 29.7302 25.7125 28.7896Z" fill="#57CD5B"/>
<path d="M20.2303 24.5463C21.2946 24.5463 22.1574 23.6835 22.1574 22.6192C22.1574 21.5549 21.2946 20.6921 20.2303 20.6921C19.166 20.6921 18.3032 21.5549 18.3032 22.6192C18.3032 23.6835 19.166 24.5463 20.2303 24.5463Z" fill="#FFE18B"/>
<path d="M6.91569 13.8814C7.57998 13.8814 8.11849 13.3429 8.11849 12.6786C8.11849 12.0143 7.57998 11.4758 6.91569 11.4758C6.2514 11.4758 5.71289 12.0143 5.71289 12.6786C5.71289 13.3429 6.2514 13.8814 6.91569 13.8814Z" fill="#FC575B"/>
<path d="M6.91585 14.3884C5.9731 14.3884 5.20605 13.6214 5.20605 12.6786C5.20605 11.7359 5.9731 10.9688 6.91585 10.9688C7.8586 10.9688 8.62565 11.7358 8.62565 12.6786C8.62565 13.6214 7.85869 14.3884 6.91585 14.3884ZM6.91585 11.9829C6.53224 11.9829 6.22022 12.295 6.22022 12.6786C6.22022 13.0622 6.53224 13.3742 6.91585 13.3742C7.29946 13.3742 7.61149 13.0622 7.61149 12.6786C7.61149 12.295 7.29946 11.9829 6.91585 11.9829Z" fill="#414043"/>
<path d="M21.3992 3.50684H10.1227C9.182 3.50684 8.41943 4.26948 8.41943 5.21011V9.9866H25.7125V7.82012L21.3992 3.50684Z" fill="white"/>
<path d="M25.7127 10.494H8.41968C8.13969 10.494 7.9126 10.267 7.9126 9.98693V5.21035C7.9126 3.99159 8.90411 3 10.1229 3H21.3994C21.5339 3 21.6628 3.05341 21.7579 3.14849L26.0711 7.46177C26.1663 7.55685 26.2197 7.68581 26.2197 7.82036V9.98684C26.2198 10.267 25.9927 10.494 25.7127 10.494ZM8.92676 9.47985H25.2056V8.03054L21.1894 4.01432H10.123C9.46343 4.01432 8.92685 4.55089 8.92685 5.21052V9.47985H8.92676Z" fill="#DFDFDF"/>
<path d="M21.4009 6.11685C21.4009 7.05747 22.1634 7.82012 23.1042 7.82012H25.7141L21.4009 3.50684V6.11685Z" fill="#FFE18B"/>
<path d="M25.7144 8.32741H23.1044C21.8856 8.32741 20.894 7.33591 20.894 6.11706V3.50705C20.894 3.30194 21.0176 3.11703 21.2071 3.0386C21.3964 2.96017 21.6145 3.00344 21.7597 3.14855L26.073 7.46183C26.218 7.60685 26.2613 7.82498 26.1828 8.01446C26.1043 8.20385 25.9194 8.32741 25.7144 8.32741ZM21.9081 4.73122V6.11706C21.9081 6.7766 22.4448 7.31326 23.1043 7.31326H24.49L21.9081 4.73122Z" fill="#DFDFDF"/>
</svg>
