<svg width="34" height="34" viewBox="0 0 34 34" fill="none" xmlns="http://www.w3.org/2000/svg">
<g clip-path="url(#clip0_277_3678)">
<path d="M27.6197 27.1187C27.6197 27.1214 27.6197 27.1242 27.6197 27.1276C24.8327 29.655 21.1332 31.1945 17.0753 31.1945C13.0167 31.1945 9.31716 29.655 6.53027 27.1276C6.53027 27.1242 6.53027 27.1215 6.53027 27.1187C6.53027 22.9152 8.98996 19.2867 12.5481 17.5933C13.8852 18.927 15.4509 19.6456 17.0754 19.6456C18.7005 19.6456 20.2654 18.927 21.6034 17.5933C25.1613 19.2867 27.6197 22.9151 27.6197 27.1187Z" fill="#1EA6C6"/>
<path d="M17.0754 4.31641C20.2966 4.31641 22.9081 6.92731 22.9081 10.1485C22.9081 13.3703 20.2966 17.7761 17.0754 17.7761C13.8542 17.7761 11.2427 13.3703 11.2427 10.1485C11.2427 6.92731 13.8542 4.31641 17.0754 4.31641Z" fill="#FCD09F"/>
<path d="M12.1596 15.7256C12.3384 15.9804 12.5235 16.2192 12.7147 16.4435L12.1327 16.7203C10.1956 17.642 8.55674 19.0841 7.39216 20.8907C6.44497 22.3604 5.85129 24.0173 5.64487 25.7445C3.54002 25.1708 1.63739 24.1071 0.0668945 22.6829V22.6753C0.0668945 19.0123 2.21043 15.8505 5.31074 14.3745C6.47607 15.537 7.84014 16.1632 9.25536 16.1632C10.1825 16.1632 11.0882 15.8947 11.9298 15.3824C12.0036 15.4985 12.0809 15.6131 12.1596 15.7256Z" fill="#EF806F"/>
<path d="M10.2762 10.1482C10.2762 11.3591 10.591 12.6915 11.1515 13.9438C10.5654 14.3152 9.92548 14.534 9.25516 14.534C6.44823 14.534 4.17285 10.695 4.17285 7.88731C4.17285 5.08038 6.44823 2.80566 9.25516 2.80566C10.8119 2.80566 12.2057 3.50568 13.1377 4.60815C11.407 5.84252 10.2762 7.86594 10.2762 10.1482Z" fill="#EFC59C"/>
<path d="M21.9745 15.7256C21.7957 15.9804 21.6107 16.2192 21.4194 16.4435L22.0014 16.7203C23.9385 17.642 25.5774 19.0841 26.742 20.8907C27.6892 22.3604 28.2829 24.0173 28.4893 25.7445C30.5941 25.1708 32.4968 24.1071 34.0672 22.6829V22.6753C34.0672 19.0123 31.9237 15.8505 28.8234 14.3745C27.6581 15.537 26.294 16.1632 24.8788 16.1632C23.9516 16.1632 23.0459 15.8947 22.2043 15.3824C22.1305 15.4985 22.0532 15.6131 21.9745 15.7256Z" fill="#EF806F"/>
<path d="M23.8576 10.1482C23.8576 11.3591 23.5427 12.6915 22.9822 13.9438C23.5683 14.3152 24.2083 14.534 24.8786 14.534C27.6855 14.534 29.9609 10.695 29.9609 7.88731C29.9609 5.08038 27.6855 2.80566 24.8786 2.80566C23.3219 2.80566 21.928 3.50568 20.9961 4.60815C22.7268 5.84252 23.8576 7.86594 23.8576 10.1482Z" fill="#EFC59C"/>
</g>
<defs>
<clipPath id="clip0_277_3678">
<rect width="34" height="34" fill="white"/>
</clipPath>
</defs>
</svg>
