<svg width="34" height="34" viewBox="0 0 34 34" fill="none" xmlns="http://www.w3.org/2000/svg">
<g clip-path="url(#clip0_277_3770)">
<path fill-rule="evenodd" clip-rule="evenodd" d="M22.7336 10.9792C24.1028 10.9792 25.2127 12.0892 25.2127 13.4584C25.2127 14.8276 24.1028 15.9376 22.7336 15.9376C21.3644 15.9376 20.2544 14.8276 20.2544 13.4584C20.2544 12.0892 21.3644 10.9792 22.7336 10.9792Z" fill="#90A7B2"/>
<path fill-rule="evenodd" clip-rule="evenodd" d="M25.5666 15.9375C25.8687 15.9375 26.1568 16.0661 26.3582 16.2914C26.5598 16.5166 26.656 16.817 26.6226 17.1173L26.1504 21.3673C26.0906 21.9053 25.6357 22.3125 25.0944 22.3125H20.3721C19.8308 22.3125 19.3759 21.9053 19.3161 21.3673L18.8439 17.1173C18.8105 16.817 18.9067 16.5166 19.1083 16.2914C19.3097 16.0661 19.5977 15.9375 19.8999 15.9375H25.5666Z" fill="#90A7B2"/>
<path fill-rule="evenodd" clip-rule="evenodd" d="M1.4834 20.896C0.896595 20.896 0.420898 21.3717 0.420898 21.9585V29.7502C0.420898 30.3369 0.896595 30.8127 1.4834 30.8127H11.4001H32.6501C33.2369 30.8127 33.7126 30.3369 33.7126 29.7502V21.9585C33.7126 21.3717 33.2369 20.896 32.6501 20.896H12.8167H1.4834Z" fill="#0983BE"/>
<path fill-rule="evenodd" clip-rule="evenodd" d="M9.2749 12.396C7.5145 12.396 6.0874 13.8231 6.0874 15.5835C6.0874 17.3438 7.5145 18.771 9.2749 18.771C11.0353 18.771 12.4624 17.3438 12.4624 15.5835C12.4624 13.8231 11.0353 12.396 9.2749 12.396Z" fill="#90A7B2"/>
<path fill-rule="evenodd" clip-rule="evenodd" d="M7.15006 18.771C5.78086 18.771 4.6709 19.881 4.6709 21.2502V25.7318C4.6709 26.6586 5.19822 27.5045 6.03025 27.9125C6.1343 27.9635 6.20026 28.0693 6.20026 28.1852V32.5835C6.20026 33.1703 6.67595 33.646 7.26276 33.646H11.2874C11.8742 33.646 12.3499 33.1703 12.3499 32.5835V28.1852C12.3499 28.0693 12.4158 27.9635 12.5199 27.9125C13.3519 27.5045 13.8792 26.6586 13.8792 25.7318V21.2502C13.8792 19.881 12.7693 18.771 11.4001 18.771H7.15006Z" fill="#90A7B2"/>
<path fill-rule="evenodd" clip-rule="evenodd" d="M20.9624 11.3335C20.9624 10.7467 21.4381 10.271 22.0249 10.271H23.4416C24.0284 10.271 24.5041 10.7467 24.5041 11.3335C24.5041 11.9203 24.0284 12.396 23.4416 12.396H22.0249C21.4381 12.396 20.9624 11.9203 20.9624 11.3335Z" fill="#607D8B"/>
<path fill-rule="evenodd" clip-rule="evenodd" d="M2.90007 6.72925C2.70447 6.72925 2.5459 6.88782 2.5459 7.08341V22.6667C2.5459 23.2535 2.0702 23.7292 1.4834 23.7292C0.896595 23.7292 0.420898 23.2535 0.420898 22.6667V7.08341C0.420898 5.71421 1.53086 4.60425 2.90007 4.60425H31.2334C32.6026 4.60425 33.7126 5.71421 33.7126 7.08341V22.6667C33.7126 23.2535 33.2369 23.7292 32.6501 23.7292C32.0633 23.7292 31.5876 23.2535 31.5876 22.6667V7.08341C31.5876 6.88782 31.429 6.72925 31.2334 6.72925H2.90007Z" fill="#0983BE"/>
<path fill-rule="evenodd" clip-rule="evenodd" d="M12.8166 0.354248C11.4474 0.354248 10.3374 1.46421 10.3374 2.83341V5.66675C10.3374 6.25355 10.8131 6.72925 11.3999 6.72925H24.1499C24.7367 6.72925 25.2124 6.25355 25.2124 5.66675V2.83341C25.2124 1.46421 24.1024 0.354248 22.7332 0.354248H12.8166Z" fill="#FFC107"/>
</g>
<defs>
<clipPath id="clip0_277_3770">
<rect width="34" height="34" fill="white"/>
</clipPath>
</defs>
</svg>
