<svg width="34" height="34" viewBox="0 0 34 34" fill="none" xmlns="http://www.w3.org/2000/svg">
<g clip-path="url(#clip0_277_3566)">
<path d="M30.0259 5.51244L29.2895 3.3901C29.2171 3.18224 29.0657 3.01158 28.8672 2.91529C28.6693 2.819 28.4408 2.80572 28.233 2.8781L26.1106 3.61455C25.6777 3.76463 25.4486 4.23744 25.5986 4.67107C25.7487 5.10404 26.2215 5.33314 26.6552 5.18307L26.8172 5.12662C25.0926 8.35861 22.9205 11.2061 20.3472 13.5987C18.0907 15.6972 15.5215 17.4556 12.7112 18.8256C7.91599 21.1631 4.02524 21.5655 3.97212 21.5708C3.51591 21.6146 3.18122 22.019 3.22505 22.4753C3.26556 22.9049 3.62747 23.227 4.05048 23.227C4.07638 23.227 4.10294 23.2256 4.13017 23.223C4.29884 23.2071 8.31177 22.8033 13.3739 20.3489C16.3429 18.9092 19.0576 17.0578 21.4436 14.8458C24.2048 12.2859 26.527 9.23451 28.3572 5.76744L28.4574 6.05564C28.5763 6.39896 28.8977 6.61412 29.2417 6.61412C29.332 6.61412 29.4236 6.59951 29.514 6.5683C29.9469 6.41822 30.1767 5.94541 30.0259 5.51178V5.51244Z" fill="url(#paint0_linear_277_3566)"/>
<path d="M12.9521 17.2031C17.0311 15.5123 18.9672 10.8349 17.2765 6.75586C15.5857 2.67678 10.9083 0.740691 6.82919 2.43148C2.75011 4.12227 0.814013 8.79967 2.5048 12.8787C4.19559 16.9578 8.87299 18.8939 12.9521 17.2031Z" fill="url(#paint1_linear_277_3566)"/>
<path d="M12.2398 11.2281C12.2398 10.1297 11.3765 9.25715 10.0411 9.00348C9.95406 8.98687 9.19305 8.83082 9.19305 8.41047C9.19305 8.09105 9.50383 7.83207 9.88633 7.83207C10.1725 7.83207 10.4335 7.98348 10.5358 8.20926C10.7257 8.62629 11.2171 8.8109 11.6348 8.62098C12.0518 8.43105 12.2364 7.93898 12.0465 7.52195C11.7882 6.95418 11.3021 6.52586 10.7157 6.31602V5.78809C10.7157 5.32988 10.3439 4.95801 9.88566 4.95801C9.42746 4.95801 9.05559 5.32988 9.05559 5.78809V6.31602C8.16641 6.63609 7.53223 7.45422 7.53223 8.41047C7.53223 9.50816 8.39551 10.3814 9.7316 10.6344C9.81859 10.651 10.5796 10.8071 10.5796 11.2274C10.5796 11.5462 10.2688 11.8058 9.88633 11.8058C9.60012 11.8058 9.33914 11.6544 9.23687 11.4293C9.04695 11.0123 8.55488 10.8277 8.13785 11.0176C7.72082 11.2075 7.53621 11.6996 7.72613 12.1166C7.98445 12.6844 8.47055 13.112 9.05691 13.3219V13.8498C9.05691 14.308 9.42879 14.6799 9.88699 14.6799C10.3452 14.6799 10.7171 14.308 10.7171 13.8498V13.3219C11.6062 13.0018 12.2404 12.1843 12.2404 11.2274L12.2398 11.2281Z" fill="url(#paint2_linear_277_3566)"/>
<path d="M8.70019 23.7427C6.77773 23.7427 5.21387 25.3065 5.21387 27.229V31.3435C5.21387 31.8017 5.58574 32.1736 6.04395 32.1736H11.3564C11.8146 32.1736 12.1865 31.8017 12.1865 31.3435V27.229C12.1865 25.3065 10.6227 23.7427 8.70019 23.7427Z" fill="url(#paint3_linear_277_3566)"/>
<path d="M25.4336 14.4446C23.5111 14.4446 21.9473 16.0084 21.9473 17.9309V31.343C21.9473 31.8012 22.3191 32.1731 22.7773 32.1731H28.0898C28.548 32.1731 28.9199 31.8012 28.9199 31.343V17.9309C28.9199 16.0084 27.3561 14.4446 25.4336 14.4446Z" fill="url(#paint4_linear_277_3566)"/>
<path d="M17.0669 20.5547C15.1444 20.5547 13.5806 22.1186 13.5806 24.041V31.343C13.5806 31.8012 13.9524 32.1731 14.4106 32.1731H19.7231C20.1813 32.1731 20.5532 31.8012 20.5532 31.343V24.041C20.5532 22.1186 18.9894 20.5547 17.0669 20.5547Z" fill="url(#paint5_linear_277_3566)"/>
<path d="M31.4106 32.1738H2.72314C2.26494 32.1738 1.89307 31.802 1.89307 31.3438C1.89307 30.8855 2.26494 30.5137 2.72314 30.5137H31.41C31.8682 30.5137 32.2401 30.8855 32.2401 31.3438C32.2401 31.802 31.8682 32.1738 31.41 32.1738H31.4106Z" fill="url(#paint6_linear_277_3566)"/>
</g>
<defs>
<linearGradient id="paint0_linear_277_3566" x1="16.6464" y1="23.2276" x2="16.6464" y2="2.83228" gradientUnits="userSpaceOnUse">
<stop stop-color="#999999"/>
<stop offset="1" stop-color="#CCCCCC"/>
</linearGradient>
<linearGradient id="paint1_linear_277_3566" x1="9.89033" y1="17.8192" x2="9.89033" y2="1.82515" gradientUnits="userSpaceOnUse">
<stop stop-color="#FFBD00"/>
<stop offset="1" stop-color="#FFF065"/>
</linearGradient>
<linearGradient id="paint2_linear_277_3566" x1="9.88633" y1="14.6812" x2="9.88633" y2="4.95801" gradientUnits="userSpaceOnUse">
<stop stop-color="#FF9500"/>
<stop offset="1" stop-color="#FFCC1E"/>
</linearGradient>
<linearGradient id="paint3_linear_277_3566" x1="0.226475" y1="30.0248" x2="3.45552" y2="22.2346" gradientUnits="userSpaceOnUse">
<stop stop-color="#FFBD00"/>
<stop offset="1" stop-color="#FFF065"/>
</linearGradient>
<linearGradient id="paint4_linear_277_3566" x1="25.4336" y1="32.1737" x2="25.4336" y2="14.4446" gradientUnits="userSpaceOnUse">
<stop stop-color="#4CA342"/>
<stop offset="1" stop-color="#54CC46"/>
</linearGradient>
<linearGradient id="paint5_linear_277_3566" x1="17.0669" y1="32.1738" x2="17.0669" y2="20.5547" gradientUnits="userSpaceOnUse">
<stop stop-color="#0068C0"/>
<stop offset="1" stop-color="#00AEFF"/>
</linearGradient>
<linearGradient id="paint6_linear_277_3566" x1="17.0669" y1="32.1738" x2="17.0669" y2="30.5137" gradientUnits="userSpaceOnUse">
<stop stop-color="#333333"/>
<stop offset="1" stop-color="#666666"/>
</linearGradient>
<clipPath id="clip0_277_3566">
<rect width="34" height="34" fill="white"/>
</clipPath>
</defs>
</svg>
